# xmcd
#
# Track frame offsets:
#	150
#	10765
#	21515
#	32843
#	45130
#	53742
#	62970
#	72355
#	82528
#	90691
#	99244
#	110939
# Disc length: 1603 seconds
# Revision: 1
# Processed by: cddbd v1.5.1PL0 Copyright (c) Steve Scherf et al.
#
# Submitted via: libkcddb 0.10
#
DISCID=9006410c
DTITLE=Buddy Holly and Bob Montgomery - Holly in the hills
DYEAR=1900
DGENRE=Unknown
TTITLE0=I wanna play house with you
TTITLE1=Door to my heart
TTITLE2=Fool's paradise
TTITLE3=I gambled my heart
TTITLE4=What to do
TTITLE5=Whishing
TTITLE6=Down the line
TTITLE7=Soft place in my heart
TTITLE8=Lonesome tears
TTITLE9=Gotta get you near me blues
TTITLE10=Flower of my heart
TTITLE11=You and I are through
EXTD=Coral COPS 1331 Stereo
EXTT0=Cy Coben 2:20
EXTT1=Bob Montgomery 2:20
EXTT2=S. LeGlaire - N. Petty - N. Linsley 2:57
EXTT3=Bob Montgomery 2:40
EXTT4=Buddy Holly 1:53
EXTT5=Buddy Holly - Bob Montgomery 2:00
EXTT6=Bob Montgomery - Buddy Holly - Norman Petty 2:01
EXTT7=Bob Montgomery 2:12
EXTT8=Buddy Holly 2:02
EXTT9=Bob Montgomery 1:52
EXTT10=Bob Montgomery 2:32
EXTT11=Bob Montgomery 2:04
PLAYORDER=
